<svg xmlns="http://www.w3.org/2000/svg" xmlns:xlink="http://www.w3.org/1999/xlink" width="500" zoomAndPan="magnify" viewBox="0 0 375 374.999991" height="500" preserveAspectRatio="xMidYMid meet" version="1.0"><defs><clipPath id="7fbd590b04"><path d="M 17.25 0 L 357.75 0 C 362.324219 0 366.710938 1.816406 369.949219 5.050781 C 373.183594 8.289062 375 12.675781 375 17.25 L 375 357.75 C 375 362.324219 373.183594 366.710938 369.949219 369.949219 C 366.710938 373.183594 362.324219 375 357.75 375 L 17.25 375 C 12.675781 375 8.289062 373.183594 5.050781 369.949219 C 1.816406 366.710938 0 362.324219 0 357.75 L 0 17.25 C 0 12.675781 1.816406 8.289062 5.050781 5.050781 C 8.289062 1.816406 12.675781 0 17.25 0 Z M 17.25 0 " clip-rule="nonzero"/></clipPath><clipPath id="ac0d02aa73"><path d="M 65.714844 65.714844 L 122.144531 65.714844 L 122.144531 122.144531 L 65.714844 122.144531 Z M 65.714844 65.714844 " clip-rule="nonzero"/></clipPath><clipPath id="c603cef97e"><path d="M 93.929688 65.714844 C 78.347656 65.714844 65.714844 78.347656 65.714844 93.929688 C 65.714844 109.511719 78.347656 122.144531 93.929688 122.144531 C 109.511719 122.144531 122.144531 109.511719 122.144531 93.929688 C 122.144531 78.347656 109.511719 65.714844 93.929688 65.714844 Z M 93.929688 65.714844 " clip-rule="nonzero"/></clipPath><clipPath id="73e7d1e958"><path d="M 37.5 281.070312 L 93.929688 281.070312 L 93.929688 337.5 L 37.5 337.5 Z M 37.5 281.070312 " clip-rule="nonzero"/></clipPath><clipPath id="747cede3b9"><path d="M 65.714844 281.070312 C 50.132812 281.070312 37.5 293.703125 37.5 309.285156 C 37.5 324.867188 50.132812 337.5 65.714844 337.5 C 81.296875 337.5 93.929688 324.867188 93.929688 309.285156 C 93.929688 293.703125 81.296875 281.070312 65.714844 281.070312 Z M 65.714844 281.070312 " clip-rule="nonzero"/></clipPath><clipPath id="531773e57a"><path d="M 281.070312 37.5 L 337.5 37.5 L 337.5 93.929688 L 281.070312 93.929688 Z M 281.070312 37.5 " clip-rule="nonzero"/></clipPath><clipPath id="3ef2cc0df2"><path d="M 309.285156 37.5 C 293.703125 37.5 281.070312 50.132812 281.070312 65.714844 C 281.070312 81.296875 293.703125 93.929688 309.285156 93.929688 C 324.867188 93.929688 337.5 81.296875 337.5 65.714844 C 337.5 50.132812 324.867188 37.5 309.285156 37.5 Z M 309.285156 37.5 " clip-rule="nonzero"/></clipPath><clipPath id="5524f2aa94"><path d="M 252.855469 252.855469 L 309.285156 252.855469 L 309.285156 309.285156 L 252.855469 309.285156 Z M 252.855469 252.855469 " clip-rule="nonzero"/></clipPath><clipPath id="98cb947040"><path d="M 281.070312 252.855469 C 265.488281 252.855469 252.855469 265.488281 252.855469 281.070312 C 252.855469 296.652344 265.488281 309.285156 281.070312 309.285156 C 296.652344 309.285156 309.285156 296.652344 309.285156 281.070312 C 309.285156 265.488281 296.652344 252.855469 281.070312 252.855469 Z M 281.070312 252.855469 " clip-rule="nonzero"/></clipPath></defs><g clip-path="url(#7fbd590b04)"><rect x="-37.5" width="450" fill="#ffffff" y="-37.499999" height="449.999989" fill-opacity="1"/><path stroke-linecap="butt" transform="matrix(0.75, 0, 0, 0.75, 0.0000045, 0.000000000000021316)" fill="none" stroke-linejoin="miter" d="M 22.999997 -0.000000000000028422 L 477.000056 -0.000000000000028422 C 483.099015 -0.000000000000028422 488.947974 2.421875 493.265683 6.734376 C 497.578184 11.052085 500.000059 16.901044 500.000059 23.000003 L 500.000059 477.000062 C 500.000059 483.099021 497.578184 488.94798 493.265683 493.265689 C 488.947974 497.57819 483.099015 500.000065 477.000056 500.000065 L 22.999997 500.000065 C 16.901038 500.000065 11.052079 497.57819 6.73437 493.265689 C 2.421869 488.94798 -0.000006 483.099021 -0.000006 477.000062 L -0.000006 23.000003 C -0.000006 16.901044 2.421869 11.052085 6.73437 6.734376 C 11.052079 2.421875 16.901038 -0.000000000000028422 22.999997 -0.000000000000028422 Z M 22.999997 -0.000000000000028422 " stroke="currentColor" stroke-width="6" stroke-opacity="1" stroke-miterlimit="4"/></g><g clip-path="url(#ac0d02aa73)"><g clip-path="url(#c603cef97e)"><path fill="currentColor" d="M 65.714844 65.714844 L 122.144531 65.714844 L 122.144531 122.144531 L 65.714844 122.144531 Z M 65.714844 65.714844 " fill-opacity="1" fill-rule="nonzero"/></g></g><g clip-path="url(#73e7d1e958)"><g clip-path="url(#747cede3b9)"><path fill="currentColor" d="M 37.5 281.070312 L 93.929688 281.070312 L 93.929688 337.5 L 37.5 337.5 Z M 37.5 281.070312 " fill-opacity="1" fill-rule="nonzero"/></g></g><g clip-path="url(#531773e57a)"><g clip-path="url(#3ef2cc0df2)"><path fill="currentColor" d="M 281.070312 37.5 L 337.5 37.5 L 337.5 93.929688 L 281.070312 93.929688 Z M 281.070312 37.5 " fill-opacity="1" fill-rule="nonzero"/></g></g><g clip-path="url(#5524f2aa94)"><g clip-path="url(#98cb947040)"><path fill="currentColor" d="M 252.855469 252.855469 L 309.285156 252.855469 L 309.285156 309.285156 L 252.855469 309.285156 Z M 252.855469 252.855469 " fill-opacity="1" fill-rule="nonzero"/></g></g><path stroke-linecap="butt" transform="matrix(0.104815, -0.74264, 0.74264, 0.104815, 61.998977, 294.044042)" fill="none" stroke-linejoin="miter" d="M 0.00203107 4.998046 L 249.150724 5.001496 " stroke="currentColor" stroke-width="10" stroke-opacity="1" stroke-miterlimit="4"/><path stroke-linecap="butt" transform="matrix(0.741187, -0.114638, 0.114638, 0.741187, 80.512396, 305.578895)" fill="none" stroke-linejoin="miter" d="M 0.000399619 5.000502 L 246.12169 5.000364 " stroke="currentColor" stroke-width="10" stroke-opacity="1" stroke-miterlimit="4"/><path stroke-linecap="butt" transform="matrix(0.740094, -0.121495, 0.121495, 0.740094, 108.335952, 90.228568)" fill="none" stroke-linejoin="miter" d="M 0.00234383 5.001263 L 252.815352 5.002008 " stroke="currentColor" stroke-width="10" stroke-opacity="1" stroke-miterlimit="4"/><path stroke-linecap="butt" transform="matrix(0.115518, -0.74105, 0.74105, 0.115518, 272.273072, 272.217522)" fill="none" stroke-linejoin="miter" d="M -0.00268554 4.998042 L 288.318521 5.001232 " stroke="currentColor" stroke-width="10" stroke-opacity="1" stroke-miterlimit="4"/><path stroke-linecap="butt" transform="matrix(-0.53033, 0.53033, -0.53033, -0.53033, 305.679505, 75.277195)" fill="none" stroke-linejoin="miter" d="M -0.0000316593 5.000996 L 418.507772 4.997313 " stroke="currentColor" stroke-width="10" stroke-opacity="1" stroke-miterlimit="4"/></svg>
