<svg xmlns="http://www.w3.org/2000/svg" xmlns:xlink="http://www.w3.org/1999/xlink" width="1800" zoomAndPan="magnify" viewBox="0 0 1350 299.999988" height="400" preserveAspectRatio="xMidYMid meet" version="1.0"><defs><g/><clipPath id="3c3bdf15d7"><path d="M 80.828125 52.570312 L 125.96875 52.570312 L 125.96875 97.714844 L 80.828125 97.714844 Z M 80.828125 52.570312 " clip-rule="nonzero"/></clipPath><clipPath id="61b014b3de"><path d="M 103.398438 52.570312 C 90.933594 52.570312 80.828125 62.675781 80.828125 75.144531 C 80.828125 87.609375 90.933594 97.714844 103.398438 97.714844 C 115.863281 97.714844 125.96875 87.609375 125.96875 75.144531 C 125.96875 62.675781 115.863281 52.570312 103.398438 52.570312 Z M 103.398438 52.570312 " clip-rule="nonzero"/></clipPath><clipPath id="c3908398c4"><path d="M 58.253906 224.855469 L 103.398438 224.855469 L 103.398438 270 L 58.253906 270 Z M 58.253906 224.855469 " clip-rule="nonzero"/></clipPath><clipPath id="1a629e4e68"><path d="M 80.828125 224.855469 C 68.359375 224.855469 58.253906 234.960938 58.253906 247.429688 C 58.253906 259.894531 68.359375 270 80.828125 270 C 93.292969 270 103.398438 259.894531 103.398438 247.429688 C 103.398438 234.960938 93.292969 224.855469 80.828125 224.855469 Z M 80.828125 224.855469 " clip-rule="nonzero"/></clipPath><clipPath id="fb60fd94ae"><path d="M 253.113281 30 L 298.253906 30 L 298.253906 75.144531 L 253.113281 75.144531 Z M 253.113281 30 " clip-rule="nonzero"/></clipPath><clipPath id="b13d0c545d"><path d="M 275.683594 30 C 263.21875 30 253.113281 40.105469 253.113281 52.570312 C 253.113281 65.039062 263.21875 75.144531 275.683594 75.144531 C 288.148438 75.144531 298.253906 65.039062 298.253906 52.570312 C 298.253906 40.105469 288.148438 30 275.683594 30 Z M 275.683594 30 " clip-rule="nonzero"/></clipPath><clipPath id="34c8e80728"><path d="M 230.539062 202.285156 L 275.683594 202.285156 L 275.683594 247.429688 L 230.539062 247.429688 Z M 230.539062 202.285156 " clip-rule="nonzero"/></clipPath><clipPath id="d697a0e76c"><path d="M 253.113281 202.285156 C 240.644531 202.285156 230.539062 212.390625 230.539062 224.855469 C 230.539062 237.324219 240.644531 247.429688 253.113281 247.429688 C 265.578125 247.429688 275.683594 237.324219 275.683594 224.855469 C 275.683594 212.390625 265.578125 202.285156 253.113281 202.285156 Z M 253.113281 202.285156 " clip-rule="nonzero"/></clipPath></defs><g fill="currentColor" fill-opacity="1"><g transform="translate(372.003625, 229.861081)"><g><path d="M 145.359375 -45.890625 C 145.359375 -30.296875 139.570312 -18.367188 128 -10.109375 C 116.4375 -1.859375 99.46875 2.265625 77.09375 2.265625 C 56.664062 2.265625 40.648438 -1.347656 29.046875 -8.578125 C 17.441406 -15.816406 9.984375 -26.785156 6.671875 -41.484375 L 38.875 -46.796875 C 41.0625 -38.359375 45.320312 -32.234375 51.65625 -28.421875 C 57.988281 -24.617188 66.765625 -22.71875 77.984375 -22.71875 C 101.273438 -22.71875 112.921875 -29.800781 112.921875 -43.96875 C 112.921875 -48.488281 111.582031 -52.21875 108.90625 -55.15625 C 106.226562 -58.09375 102.457031 -60.539062 97.59375 -62.5 C 92.738281 -64.457031 83.414062 -66.832031 69.625 -69.625 C 57.71875 -72.414062 49.425781 -74.65625 44.75 -76.34375 C 40.082031 -78.039062 35.863281 -80.039062 32.09375 -82.34375 C 28.332031 -84.644531 25.128906 -87.414062 22.484375 -90.65625 C 19.847656 -93.894531 17.796875 -97.695312 16.328125 -102.0625 C 14.859375 -106.4375 14.125 -111.445312 14.125 -117.09375 C 14.125 -131.488281 19.53125 -142.507812 30.34375 -150.15625 C 41.15625 -157.800781 56.882812 -161.625 77.53125 -161.625 C 97.28125 -161.625 112.109375 -158.535156 122.015625 -152.359375 C 131.921875 -146.179688 138.304688 -135.972656 141.171875 -121.734375 L 108.84375 -117.328125 C 107.1875 -124.179688 103.816406 -129.34375 98.734375 -132.8125 C 93.648438 -136.28125 86.359375 -138.015625 76.859375 -138.015625 C 56.660156 -138.015625 46.5625 -131.679688 46.5625 -119.015625 C 46.5625 -114.867188 47.632812 -111.476562 49.78125 -108.84375 C 51.9375 -106.207031 55.125 -103.96875 59.34375 -102.125 C 63.5625 -100.28125 72.113281 -97.960938 85 -95.171875 C 100.289062 -91.929688 111.234375 -88.9375 117.828125 -86.1875 C 124.421875 -83.4375 129.640625 -80.234375 133.484375 -76.578125 C 137.328125 -72.921875 140.265625 -68.550781 142.296875 -63.46875 C 144.335938 -58.382812 145.359375 -52.523438 145.359375 -45.890625 Z M 145.359375 -45.890625 "/></g></g><g transform="translate(526.398398, 229.861081)"><g><path d="M 87.375 -133.484375 L 87.375 0 L 54.03125 0 L 54.03125 -133.484375 L 2.59375 -133.484375 L 2.59375 -159.265625 L 138.90625 -159.265625 L 138.90625 -133.484375 Z M 87.375 -133.484375 "/></g></g><g transform="translate(667.795074, 229.861081)"><g><path d="M 124.890625 0 L 87.9375 -60.46875 L 48.828125 -60.46875 L 48.828125 0 L 15.484375 0 L 15.484375 -159.265625 L 95.0625 -159.265625 C 114.050781 -159.265625 128.707031 -155.175781 139.03125 -147 C 149.351562 -138.820312 154.515625 -127.082031 154.515625 -111.78125 C 154.515625 -100.632812 151.347656 -91.007812 145.015625 -82.90625 C 138.679688 -74.800781 130.128906 -69.46875 119.359375 -66.90625 L 162.421875 0 Z M 120.9375 -110.4375 C 120.9375 -125.726562 111.140625 -133.375 91.546875 -133.375 L 48.828125 -133.375 L 48.828125 -86.359375 L 92.453125 -86.359375 C 101.796875 -86.359375 108.878906 -88.46875 113.703125 -92.6875 C 118.523438 -96.90625 120.9375 -102.820312 120.9375 -110.4375 Z M 120.9375 -110.4375 "/></g></g><g transform="translate(834.961888, 229.861081)"><g><path d="M 81.71875 2.265625 C 59.789062 2.265625 43.003906 -3.082031 31.359375 -13.78125 C 19.722656 -24.488281 13.90625 -39.785156 13.90625 -59.671875 L 13.90625 -159.265625 L 47.25 -159.265625 L 47.25 -62.28125 C 47.25 -49.695312 50.242188 -40.144531 56.234375 -33.625 C 62.222656 -27.101562 71.019531 -23.84375 82.625 -23.84375 C 94.53125 -23.84375 103.6875 -27.253906 110.09375 -34.078125 C 116.5 -40.898438 119.703125 -50.675781 119.703125 -63.40625 L 119.703125 -159.265625 L 153.046875 -159.265625 L 153.046875 -61.375 C 153.046875 -41.175781 146.804688 -25.519531 134.328125 -14.40625 C 121.859375 -3.289062 104.320312 2.265625 81.71875 2.265625 Z M 81.71875 2.265625 "/></g></g><g transform="translate(1002.128702, 229.861081)"><g><path d="M 89.859375 -23.96875 C 109.972656 -23.96875 123.953125 -34.0625 131.796875 -54.25 L 160.84375 -43.296875 C 154.582031 -27.921875 145.40625 -16.484375 133.3125 -8.984375 C 121.21875 -1.484375 106.734375 2.265625 89.859375 2.265625 C 64.234375 2.265625 44.429688 -4.984375 30.453125 -19.484375 C 16.484375 -33.992188 9.5 -54.285156 9.5 -80.359375 C 9.5 -106.503906 16.238281 -126.582031 29.71875 -140.59375 C 43.207031 -154.613281 62.765625 -161.625 88.390625 -161.625 C 107.078125 -161.625 122.296875 -157.875 134.046875 -150.375 C 145.804688 -142.882812 154.0625 -131.867188 158.8125 -117.328125 L 129.421875 -109.296875 C 126.929688 -117.285156 122.050781 -123.632812 114.78125 -128.34375 C 107.507812 -133.050781 98.9375 -135.40625 89.0625 -135.40625 C 74 -135.40625 62.566406 -130.734375 54.765625 -121.390625 C 46.960938 -112.046875 43.0625 -98.367188 43.0625 -80.359375 C 43.0625 -62.046875 47.070312 -48.066406 55.09375 -38.421875 C 63.125 -28.785156 74.710938 -23.96875 89.859375 -23.96875 Z M 89.859375 -23.96875 "/></g></g><g transform="translate(1169.295517, 229.861081)"><g><path d="M 87.375 -133.484375 L 87.375 0 L 54.03125 0 L 54.03125 -133.484375 L 2.59375 -133.484375 L 2.59375 -159.265625 L 138.90625 -159.265625 L 138.90625 -133.484375 Z M 87.375 -133.484375 "/></g></g></g><g clip-path="url(#3c3bdf15d7)"><g clip-path="url(#61b014b3de)"><path fill="currentColor" d="M 80.828125 52.570312 L 125.96875 52.570312 L 125.96875 97.714844 L 80.828125 97.714844 Z M 80.828125 52.570312 " fill-opacity="1" fill-rule="nonzero"/></g></g><g clip-path="url(#c3908398c4)"><g clip-path="url(#1a629e4e68)"><path fill="currentColor" d="M 58.253906 224.855469 L 103.398438 224.855469 L 103.398438 270 L 58.253906 270 Z M 58.253906 224.855469 " fill-opacity="1" fill-rule="nonzero"/></g></g><g clip-path="url(#fb60fd94ae)"><g clip-path="url(#b13d0c545d)"><path fill="currentColor" d="M 253.113281 30 L 298.253906 30 L 298.253906 75.144531 L 253.113281 75.144531 Z M 253.113281 30 " fill-opacity="1" fill-rule="nonzero"/></g></g><g clip-path="url(#34c8e80728)"><g clip-path="url(#d697a0e76c)"><path fill="currentColor" d="M 230.539062 202.285156 L 275.683594 202.285156 L 275.683594 247.429688 L 230.539062 247.429688 Z M 230.539062 202.285156 " fill-opacity="1" fill-rule="nonzero"/></g></g><path stroke-linecap="butt" transform="matrix(0.104815, -0.74264, 0.74264, 0.104815, 77.854547, 235.235239)" fill="none" stroke-linejoin="miter" d="M -0.00247457 3.999155 L 199.317964 3.997498 " stroke="currentColor" stroke-width="8" stroke-opacity="1" stroke-miterlimit="4"/><path stroke-linecap="butt" transform="matrix(0.741187, -0.114638, 0.114638, 0.741187, 92.665296, 244.463315)" fill="none" stroke-linejoin="miter" d="M 0.00118897 4.002376 L 196.893555 3.998381 " stroke="currentColor" stroke-width="8" stroke-opacity="1" stroke-miterlimit="4"/><path stroke-linecap="butt" transform="matrix(0.740094, -0.121495, 0.121495, 0.740094, 114.924128, 72.18285)" fill="none" stroke-linejoin="miter" d="M -0.00021595 4.001728 L 202.249672 3.999072 " stroke="currentColor" stroke-width="8" stroke-opacity="1" stroke-miterlimit="4"/><path stroke-linecap="butt" transform="matrix(0.115518, -0.74105, 0.74105, 0.115518, 246.070848, 217.770539)" fill="none" stroke-linejoin="miter" d="M -0.00230298 4.000504 L 230.651097 4.00045 " stroke="currentColor" stroke-width="8" stroke-opacity="1" stroke-miterlimit="4"/><path stroke-linecap="butt" transform="matrix(-0.53033, 0.53033, -0.53033, -0.53033, 272.796977, 60.222571)" fill="none" stroke-linejoin="miter" d="M 0.000176201 3.999589 L 334.807897 3.999589 " stroke="currentColor" stroke-width="8" stroke-opacity="1" stroke-miterlimit="4"/></svg>
