<svg xmlns="http://www.w3.org/2000/svg" xmlns:xlink="http://www.w3.org/1999/xlink" width="1800" zoomAndPan="magnify" viewBox="0 0 1350 299.999988" height="400" preserveAspectRatio="xMidYMid meet" version="1.0"><defs><g/></defs><g fill="currentColor" fill-opacity="1"><g transform="translate(168.09672, 236.249944)"><g><path d="M 156.984375 -49.5625 C 156.984375 -32.71875 150.734375 -19.835938 138.234375 -10.921875 C 125.742188 -2.015625 107.414062 2.4375 83.25 2.4375 C 61.195312 2.4375 43.90625 -1.46875 31.375 -9.28125 C 18.84375 -17.09375 10.785156 -28.929688 7.203125 -44.796875 L 42 -50.53125 C 44.351562 -41.414062 48.945312 -34.800781 55.78125 -30.6875 C 62.625 -26.582031 72.109375 -24.53125 84.234375 -24.53125 C 109.378906 -24.53125 121.953125 -32.179688 121.953125 -47.484375 C 121.953125 -52.367188 120.503906 -56.394531 117.609375 -59.5625 C 114.722656 -62.738281 110.65625 -65.382812 105.40625 -67.5 C 100.15625 -69.613281 90.085938 -72.179688 75.203125 -75.203125 C 62.335938 -78.210938 53.378906 -80.628906 48.328125 -82.453125 C 43.285156 -84.285156 38.726562 -86.441406 34.65625 -88.921875 C 30.59375 -91.410156 27.132812 -94.40625 24.28125 -97.90625 C 21.4375 -101.40625 19.222656 -105.515625 17.640625 -110.234375 C 16.054688 -114.953125 15.265625 -120.363281 15.265625 -126.46875 C 15.265625 -142.007812 21.101562 -153.910156 32.78125 -162.171875 C 44.457031 -170.429688 61.441406 -174.5625 83.734375 -174.5625 C 105.054688 -174.5625 121.066406 -171.222656 131.765625 -164.546875 C 142.472656 -157.878906 149.375 -146.851562 152.46875 -131.46875 L 117.546875 -126.703125 C 115.765625 -134.109375 112.125 -139.679688 106.625 -143.421875 C 101.132812 -147.171875 93.265625 -149.046875 83.015625 -149.046875 C 61.203125 -149.046875 50.296875 -142.210938 50.296875 -128.546875 C 50.296875 -124.066406 51.453125 -120.398438 53.765625 -117.546875 C 56.085938 -114.703125 59.523438 -112.28125 64.078125 -110.28125 C 68.640625 -108.289062 77.878906 -105.789062 91.796875 -102.78125 C 108.316406 -99.28125 120.132812 -96.046875 127.25 -93.078125 C 134.375 -90.109375 140.007812 -86.648438 144.15625 -82.703125 C 148.3125 -78.753906 151.488281 -74.03125 153.6875 -68.53125 C 155.882812 -63.039062 156.984375 -56.71875 156.984375 -49.5625 Z M 156.984375 -49.5625 "/></g></g><g transform="translate(334.844743, 236.249944)"><g><path d="M 94.359375 -144.171875 L 94.359375 0 L 58.34375 0 L 58.34375 -144.171875 L 2.8125 -144.171875 L 2.8125 -172 L 150.03125 -172 L 150.03125 -144.171875 Z M 94.359375 -144.171875 "/></g></g><g transform="translate(487.554681, 236.249944)"><g><path d="M 134.890625 0 L 94.96875 -65.3125 L 52.734375 -65.3125 L 52.734375 0 L 16.71875 0 L 16.71875 -172 L 102.65625 -172 C 123.164062 -172 138.992188 -167.582031 150.140625 -158.75 C 161.296875 -149.925781 166.875 -137.253906 166.875 -120.734375 C 166.875 -108.679688 163.453125 -98.28125 156.609375 -89.53125 C 149.773438 -80.789062 140.539062 -75.035156 128.90625 -72.265625 L 175.421875 0 Z M 130.609375 -119.265625 C 130.609375 -135.785156 120.03125 -144.046875 98.875 -144.046875 L 52.734375 -144.046875 L 52.734375 -93.265625 L 99.859375 -93.265625 C 109.941406 -93.265625 117.585938 -95.539062 122.796875 -100.09375 C 128.003906 -104.65625 130.609375 -111.046875 130.609375 -119.265625 Z M 130.609375 -119.265625 "/></g></g><g transform="translate(668.096647, 236.249944)"><g><path d="M 88.25 2.4375 C 64.570312 2.4375 46.445312 -3.335938 33.875 -14.890625 C 21.300781 -26.453125 15.015625 -42.972656 15.015625 -64.453125 L 15.015625 -172 L 51.03125 -172 L 51.03125 -67.265625 C 51.03125 -53.671875 54.265625 -43.351562 60.734375 -36.3125 C 67.203125 -29.269531 76.703125 -25.75 89.234375 -25.75 C 102.085938 -25.75 111.972656 -29.429688 118.890625 -36.796875 C 125.804688 -44.171875 129.265625 -54.734375 129.265625 -68.484375 L 129.265625 -172 L 165.28125 -172 L 165.28125 -66.28125 C 165.28125 -44.46875 158.546875 -27.5625 145.078125 -15.5625 C 131.609375 -3.5625 112.664062 2.4375 88.25 2.4375 Z M 88.25 2.4375 "/></g></g><g transform="translate(848.638614, 236.249944)"><g><path d="M 97.046875 -25.875 C 118.773438 -25.875 133.867188 -36.78125 142.328125 -58.59375 L 173.703125 -46.75 C 166.953125 -30.144531 157.046875 -17.796875 143.984375 -9.703125 C 130.921875 -1.609375 115.273438 2.4375 97.046875 2.4375 C 69.378906 2.4375 47.992188 -5.394531 32.890625 -21.0625 C 17.796875 -36.726562 10.25 -58.640625 10.25 -86.796875 C 10.25 -115.035156 17.53125 -136.722656 32.09375 -151.859375 C 46.664062 -166.992188 67.785156 -174.5625 95.453125 -174.5625 C 115.640625 -174.5625 132.078125 -170.507812 144.765625 -162.40625 C 157.460938 -154.3125 166.378906 -142.410156 171.515625 -126.703125 L 139.765625 -118.046875 C 137.085938 -126.671875 131.820312 -133.523438 123.96875 -138.609375 C 116.113281 -143.691406 106.851562 -146.234375 96.1875 -146.234375 C 79.914062 -146.234375 67.566406 -141.1875 59.140625 -131.09375 C 50.722656 -121.007812 46.515625 -106.242188 46.515625 -86.796875 C 46.515625 -67.015625 50.847656 -51.914062 59.515625 -41.5 C 68.179688 -31.082031 80.691406 -25.875 97.046875 -25.875 Z M 97.046875 -25.875 "/></g></g><g transform="translate(1029.18058, 236.249944)"><g><path d="M 94.359375 -144.171875 L 94.359375 0 L 58.34375 0 L 58.34375 -144.171875 L 2.8125 -144.171875 L 2.8125 -172 L 150.03125 -172 L 150.03125 -144.171875 Z M 94.359375 -144.171875 "/></g></g></g></svg>
