<svg xmlns="http://www.w3.org/2000/svg" xmlns:xlink="http://www.w3.org/1999/xlink" width="500" zoomAndPan="magnify" viewBox="0 0 375 374.999991" height="500" preserveAspectRatio="xMidYMid meet" version="1.0"><defs><clipPath id="febb72b0d7"><path d="M 36.464844 36.464844 L 106.445312 36.464844 L 106.445312 106.445312 L 36.464844 106.445312 Z M 36.464844 36.464844 " clip-rule="nonzero"/></clipPath><clipPath id="bd499f21a0"><path d="M 71.457031 36.464844 C 52.128906 36.464844 36.464844 52.128906 36.464844 71.457031 C 36.464844 90.78125 52.128906 106.445312 71.457031 106.445312 C 90.78125 106.445312 106.445312 90.78125 106.445312 71.457031 C 106.445312 52.128906 90.78125 36.464844 71.457031 36.464844 Z M 71.457031 36.464844 " clip-rule="nonzero"/></clipPath><clipPath id="af9bd5801f"><path d="M 1.472656 303.542969 L 71.457031 303.542969 L 71.457031 373.527344 L 1.472656 373.527344 Z M 1.472656 303.542969 " clip-rule="nonzero"/></clipPath><clipPath id="02cf214c01"><path d="M 36.464844 303.542969 C 17.140625 303.542969 1.472656 319.210938 1.472656 338.535156 C 1.472656 357.859375 17.140625 373.527344 36.464844 373.527344 C 55.789062 373.527344 71.457031 357.859375 71.457031 338.535156 C 71.457031 319.210938 55.789062 303.542969 36.464844 303.542969 Z M 36.464844 303.542969 " clip-rule="nonzero"/></clipPath><clipPath id="a5031187f5"><path d="M 303.542969 1.472656 L 373.527344 1.472656 L 373.527344 71.457031 L 303.542969 71.457031 Z M 303.542969 1.472656 " clip-rule="nonzero"/></clipPath><clipPath id="43cd7ea328"><path d="M 338.535156 1.472656 C 319.210938 1.472656 303.542969 17.140625 303.542969 36.464844 C 303.542969 55.789062 319.210938 71.457031 338.535156 71.457031 C 357.859375 71.457031 373.527344 55.789062 373.527344 36.464844 C 373.527344 17.140625 357.859375 1.472656 338.535156 1.472656 Z M 338.535156 1.472656 " clip-rule="nonzero"/></clipPath><clipPath id="de3bcfca2f"><path d="M 268.554688 268.554688 L 338.535156 268.554688 L 338.535156 338.535156 L 268.554688 338.535156 Z M 268.554688 268.554688 " clip-rule="nonzero"/></clipPath><clipPath id="f60c2001aa"><path d="M 303.542969 268.554688 C 284.21875 268.554688 268.554688 284.21875 268.554688 303.542969 C 268.554688 322.871094 284.21875 338.535156 303.542969 338.535156 C 322.871094 338.535156 338.535156 322.871094 338.535156 303.542969 C 338.535156 284.21875 322.871094 268.554688 303.542969 268.554688 Z M 303.542969 268.554688 " clip-rule="nonzero"/></clipPath></defs><g clip-path="url(#febb72b0d7)"><g clip-path="url(#bd499f21a0)"><path fill="currentColor" d="M 36.464844 36.464844 L 106.445312 36.464844 L 106.445312 106.445312 L 36.464844 106.445312 Z M 36.464844 36.464844 " fill-opacity="1" fill-rule="nonzero"/></g></g><g clip-path="url(#af9bd5801f)"><g clip-path="url(#02cf214c01)"><path fill="currentColor" d="M 1.472656 303.542969 L 71.457031 303.542969 L 71.457031 373.527344 L 1.472656 373.527344 Z M 1.472656 303.542969 " fill-opacity="1" fill-rule="nonzero"/></g></g><g clip-path="url(#a5031187f5)"><g clip-path="url(#43cd7ea328)"><path fill="currentColor" d="M 303.542969 1.472656 L 373.527344 1.472656 L 373.527344 71.457031 L 303.542969 71.457031 Z M 303.542969 1.472656 " fill-opacity="1" fill-rule="nonzero"/></g></g><g clip-path="url(#de3bcfca2f)"><g clip-path="url(#f60c2001aa)"><path fill="currentColor" d="M 268.554688 268.554688 L 338.535156 268.554688 L 338.535156 338.535156 L 268.554688 338.535156 Z M 268.554688 268.554688 " fill-opacity="1" fill-rule="nonzero"/></g></g><path stroke-linecap="butt" transform="matrix(0.104815, -0.74264, 0.74264, 0.104815, 32.007552, 319.656718)" fill="none" stroke-linejoin="miter" d="M 0.000870821 6.001834 L 308.986357 6.002204 " stroke="currentColor" stroke-width="12" stroke-opacity="1" stroke-miterlimit="4"/><path stroke-linecap="butt" transform="matrix(0.741187, -0.114638, 0.114638, 0.741187, 54.839437, 334.087596)" fill="none" stroke-linejoin="miter" d="M 0.0000180414 6.000595 L 305.232773 5.999174 " stroke="currentColor" stroke-width="12" stroke-opacity="1" stroke-miterlimit="4"/><path stroke-linecap="butt" transform="matrix(0.740094, -0.121495, 0.121495, 0.740094, 89.346942, 67.014809)" fill="none" stroke-linejoin="miter" d="M -0.00258202 6.001817 L 313.534624 6.000874 " stroke="currentColor" stroke-width="12" stroke-opacity="1" stroke-miterlimit="4"/><path stroke-linecap="butt" transform="matrix(0.115518, -0.74105, 0.74105, 0.115518, 292.783754, 292.589453)" fill="none" stroke-linejoin="miter" d="M 0.00180998 6.000275 L 357.565398 5.999912 " stroke="currentColor" stroke-width="12" stroke-opacity="1" stroke-miterlimit="4"/><path stroke-linecap="butt" transform="matrix(-0.53033, 0.53033, -0.53033, -0.53033, 333.957933, 48.21694)" fill="none" stroke-linejoin="miter" d="M -0.00112625 5.998503 L 519.022649 5.998503 " stroke="currentColor" stroke-width="12" stroke-opacity="1" stroke-miterlimit="4"/></svg>
