<svg xmlns="http://www.w3.org/2000/svg" xmlns:xlink="http://www.w3.org/1999/xlink" width="500" zoomAndPan="magnify" viewBox="0 0 375 374.999991" height="500" preserveAspectRatio="xMidYMid meet" version="1.0"><defs><g/><clipPath id="a6afd407cd"><path d="M 82.6875 33.640625 L 131.253906 33.640625 L 131.253906 82.207031 L 82.6875 82.207031 Z M 82.6875 33.640625 " clip-rule="nonzero"/></clipPath><clipPath id="fb2702c847"><path d="M 106.972656 33.640625 C 93.558594 33.640625 82.6875 44.511719 82.6875 57.925781 C 82.6875 71.335938 93.558594 82.207031 106.972656 82.207031 C 120.382812 82.207031 131.253906 71.335938 131.253906 57.925781 C 131.253906 44.511719 120.382812 33.640625 106.972656 33.640625 Z M 106.972656 33.640625 " clip-rule="nonzero"/></clipPath><clipPath id="3b2f9c8270"><path d="M 58.40625 218.980469 L 106.972656 218.980469 L 106.972656 267.546875 L 58.40625 267.546875 Z M 58.40625 218.980469 " clip-rule="nonzero"/></clipPath><clipPath id="2e39f804aa"><path d="M 82.6875 218.980469 C 69.277344 218.980469 58.40625 229.855469 58.40625 243.265625 C 58.40625 256.675781 69.277344 267.546875 82.6875 267.546875 C 96.097656 267.546875 106.972656 256.675781 106.972656 243.265625 C 106.972656 229.855469 96.097656 218.980469 82.6875 218.980469 Z M 82.6875 218.980469 " clip-rule="nonzero"/></clipPath><clipPath id="8ab204a7fa"><path d="M 268.027344 9.359375 L 316.59375 9.359375 L 316.59375 57.925781 L 268.027344 57.925781 Z M 268.027344 9.359375 " clip-rule="nonzero"/></clipPath><clipPath id="5ab95c3bb0"><path d="M 292.3125 9.359375 C 278.902344 9.359375 268.027344 20.230469 268.027344 33.640625 C 268.027344 47.050781 278.902344 57.925781 292.3125 57.925781 C 305.722656 57.925781 316.59375 47.050781 316.59375 33.640625 C 316.59375 20.230469 305.722656 9.359375 292.3125 9.359375 Z M 292.3125 9.359375 " clip-rule="nonzero"/></clipPath><clipPath id="1158eaf706"><path d="M 243.746094 194.699219 L 292.3125 194.699219 L 292.3125 243.265625 L 243.746094 243.265625 Z M 243.746094 194.699219 " clip-rule="nonzero"/></clipPath><clipPath id="04301d0c74"><path d="M 268.027344 194.699219 C 254.617188 194.699219 243.746094 205.570312 243.746094 218.980469 C 243.746094 232.394531 254.617188 243.265625 268.027344 243.265625 C 281.441406 243.265625 292.3125 232.394531 292.3125 218.980469 C 292.3125 205.570312 281.441406 194.699219 268.027344 194.699219 Z M 268.027344 194.699219 " clip-rule="nonzero"/></clipPath></defs><g fill="currentColor" fill-opacity="1"><g transform="translate(5.662574, 342.860714)"><g><path d="M 56.3125 -17.78125 C 56.3125 -11.738281 54.070312 -7.117188 49.59375 -3.921875 C 45.113281 -0.722656 38.535156 0.875 29.859375 0.875 C 21.953125 0.875 15.75 -0.523438 11.25 -3.328125 C 6.757812 -6.128906 3.867188 -10.378906 2.578125 -16.078125 L 15.0625 -18.125 C 15.90625 -14.851562 17.550781 -12.476562 20 -11 C 22.457031 -9.53125 25.863281 -8.796875 30.21875 -8.796875 C 39.238281 -8.796875 43.75 -11.539062 43.75 -17.03125 C 43.75 -18.78125 43.226562 -20.222656 42.1875 -21.359375 C 41.15625 -22.503906 39.695312 -23.457031 37.8125 -24.21875 C 35.925781 -24.976562 32.3125 -25.894531 26.96875 -26.96875 C 22.363281 -28.050781 19.15625 -28.921875 17.34375 -29.578125 C 15.53125 -30.234375 13.894531 -31.003906 12.4375 -31.890625 C 10.976562 -32.785156 9.738281 -33.859375 8.71875 -35.109375 C 7.695312 -36.367188 6.898438 -37.84375 6.328125 -39.53125 C 5.753906 -41.226562 5.46875 -43.175781 5.46875 -45.375 C 5.46875 -50.945312 7.5625 -55.210938 11.75 -58.171875 C 15.945312 -61.140625 22.046875 -62.625 30.046875 -62.625 C 37.691406 -62.625 43.429688 -61.425781 47.265625 -59.03125 C 51.109375 -56.632812 53.585938 -52.679688 54.703125 -47.171875 L 42.171875 -45.453125 C 41.523438 -48.109375 40.21875 -50.109375 38.25 -51.453125 C 36.28125 -52.796875 33.457031 -53.46875 29.78125 -53.46875 C 21.957031 -53.46875 18.046875 -51.015625 18.046875 -46.109375 C 18.046875 -44.503906 18.457031 -43.191406 19.28125 -42.171875 C 20.113281 -41.148438 21.347656 -40.28125 22.984375 -39.5625 C 24.617188 -38.851562 27.9375 -37.957031 32.9375 -36.875 C 38.863281 -35.613281 43.101562 -34.453125 45.65625 -33.390625 C 48.207031 -32.328125 50.226562 -31.085938 51.71875 -29.671875 C 53.207031 -28.253906 54.34375 -26.5625 55.125 -24.59375 C 55.914062 -22.625 56.3125 -20.351562 56.3125 -17.78125 Z M 56.3125 -17.78125 "/></g></g><g transform="translate(65.479086, 342.860714)"><g><path d="M 33.859375 -51.71875 L 33.859375 0 L 20.9375 0 L 20.9375 -51.71875 L 1 -51.71875 L 1 -61.703125 L 53.828125 -61.703125 L 53.828125 -51.71875 Z M 33.859375 -51.71875 "/></g></g><g transform="translate(120.2598, 342.860714)"><g><path d="M 48.390625 0 L 34.078125 -23.421875 L 18.921875 -23.421875 L 18.921875 0 L 6 0 L 6 -61.703125 L 36.828125 -61.703125 C 44.179688 -61.703125 49.859375 -60.117188 53.859375 -56.953125 C 57.859375 -53.785156 59.859375 -49.238281 59.859375 -43.3125 C 59.859375 -38.988281 58.628906 -35.257812 56.171875 -32.125 C 53.722656 -28.988281 50.414062 -26.921875 46.25 -25.921875 L 62.9375 0 Z M 46.859375 -42.78125 C 46.859375 -48.707031 43.0625 -51.671875 35.46875 -51.671875 L 18.921875 -51.671875 L 18.921875 -33.453125 L 35.828125 -33.453125 C 39.441406 -33.453125 42.179688 -34.269531 44.046875 -35.90625 C 45.921875 -37.539062 46.859375 -39.832031 46.859375 -42.78125 Z M 46.859375 -42.78125 "/></g></g><g transform="translate(185.02453, 342.860714)"><g><path d="M 31.65625 0.875 C 23.164062 0.875 16.664062 -1.195312 12.15625 -5.34375 C 7.644531 -9.488281 5.390625 -15.414062 5.390625 -23.125 L 5.390625 -61.703125 L 18.3125 -61.703125 L 18.3125 -24.125 C 18.3125 -19.25 19.46875 -15.546875 21.78125 -13.015625 C 24.101562 -10.492188 27.515625 -9.234375 32.015625 -9.234375 C 36.628906 -9.234375 40.175781 -10.554688 42.65625 -13.203125 C 45.132812 -15.847656 46.375 -19.632812 46.375 -24.5625 L 46.375 -61.703125 L 59.296875 -61.703125 L 59.296875 -23.78125 C 59.296875 -15.957031 56.878906 -9.890625 52.046875 -5.578125 C 47.210938 -1.273438 40.414062 0.875 31.65625 0.875 Z M 31.65625 0.875 "/></g></g><g transform="translate(249.78926, 342.860714)"><g><path d="M 34.8125 -9.28125 C 42.613281 -9.28125 48.03125 -13.191406 51.0625 -21.015625 L 62.3125 -16.765625 C 59.894531 -10.816406 56.34375 -6.390625 51.65625 -3.484375 C 46.96875 -0.578125 41.351562 0.875 34.8125 0.875 C 24.882812 0.875 17.210938 -1.929688 11.796875 -7.546875 C 6.378906 -13.171875 3.671875 -21.035156 3.671875 -31.140625 C 3.671875 -41.265625 6.285156 -49.039062 11.515625 -54.46875 C 16.742188 -59.90625 24.320312 -62.625 34.25 -62.625 C 41.488281 -62.625 47.382812 -61.171875 51.9375 -58.265625 C 56.488281 -55.359375 59.6875 -51.085938 61.53125 -45.453125 L 50.140625 -42.34375 C 49.179688 -45.4375 47.289062 -47.894531 44.46875 -49.71875 C 41.65625 -51.550781 38.335938 -52.46875 34.515625 -52.46875 C 28.671875 -52.46875 24.238281 -50.65625 21.21875 -47.03125 C 18.195312 -43.414062 16.6875 -38.117188 16.6875 -31.140625 C 16.6875 -24.046875 18.238281 -18.628906 21.34375 -14.890625 C 24.457031 -11.148438 28.945312 -9.28125 34.8125 -9.28125 Z M 34.8125 -9.28125 "/></g></g><g transform="translate(314.553989, 342.860714)"><g><path d="M 33.859375 -51.71875 L 33.859375 0 L 20.9375 0 L 20.9375 -51.71875 L 1 -51.71875 L 1 -61.703125 L 53.828125 -61.703125 L 53.828125 -51.71875 Z M 33.859375 -51.71875 "/></g></g></g><g clip-path="url(#a6afd407cd)"><g clip-path="url(#fb2702c847)"><path fill="currentColor" d="M 82.6875 33.640625 L 131.253906 33.640625 L 131.253906 82.207031 L 82.6875 82.207031 Z M 82.6875 33.640625 " fill-opacity="1" fill-rule="nonzero"/></g></g><g clip-path="url(#3b2f9c8270)"><g clip-path="url(#2e39f804aa)"><path fill="currentColor" d="M 58.40625 218.980469 L 106.972656 218.980469 L 106.972656 267.546875 L 58.40625 267.546875 Z M 58.40625 218.980469 " fill-opacity="1" fill-rule="nonzero"/></g></g><g clip-path="url(#8ab204a7fa)"><g clip-path="url(#5ab95c3bb0)"><path fill="currentColor" d="M 268.027344 9.359375 L 316.59375 9.359375 L 316.59375 57.925781 L 268.027344 57.925781 Z M 268.027344 9.359375 " fill-opacity="1" fill-rule="nonzero"/></g></g><g clip-path="url(#1158eaf706)"><g clip-path="url(#04301d0c74)"><path fill="currentColor" d="M 243.746094 194.699219 L 292.3125 194.699219 L 292.3125 243.265625 L 243.746094 243.265625 Z M 243.746094 194.699219 " fill-opacity="1" fill-rule="nonzero"/></g></g><path stroke-linecap="butt" transform="matrix(0.104815, -0.74264, 0.74264, 0.104815, 79.342067, 230.122953)" fill="none" stroke-linejoin="miter" d="M 0.00108602 4.499373 L 214.423422 4.50179 " stroke="currentColor" stroke-width="9" stroke-opacity="1" stroke-miterlimit="4"/><path stroke-linecap="butt" transform="matrix(0.741187, -0.114638, 0.114638, 0.741187, 95.401755, 239.928618)" fill="none" stroke-linejoin="miter" d="M 0.000114768 4.502265 L 211.817847 4.498365 " stroke="currentColor" stroke-width="9" stroke-opacity="1" stroke-miterlimit="4"/><path stroke-linecap="butt" transform="matrix(0.740094, -0.121495, 0.121495, 0.740094, 119.345819, 54.592789)" fill="none" stroke-linejoin="miter" d="M -0.00223662 4.497826 L 217.574484 4.498888 " stroke="currentColor" stroke-width="9" stroke-opacity="1" stroke-miterlimit="4"/><path stroke-linecap="butt" transform="matrix(0.115518, -0.74105, 0.74105, 0.115518, 260.310691, 211.33903)" fill="none" stroke-linejoin="miter" d="M -0.000860139 4.498939 L 248.132021 4.499343 " stroke="currentColor" stroke-width="9" stroke-opacity="1" stroke-miterlimit="4"/><path stroke-linecap="butt" transform="matrix(-0.53033, 0.53033, -0.53033, -0.53033, 289.31357, 41.97574)" fill="none" stroke-linejoin="miter" d="M 0.00178413 4.500674 L 360.176957 4.500674 " stroke="currentColor" stroke-width="9" stroke-opacity="1" stroke-miterlimit="4"/></svg>
